<svg width="90" height="63" viewBox="0 0 90 63" fill="none" xmlns="http://www.w3.org/2000/svg">
<path fill-rule="evenodd" clip-rule="evenodd" d="M31.5635 62.1268C48.4432 62.1268 62.1269 48.4431 62.1269 31.5634C62.1269 14.6837 48.4432 1 31.5635 1C14.6838 1 1.00006 14.6837 1.00006 31.5634C1.00006 48.4431 14.6838 62.1268 31.5635 62.1268ZM31.5637 21.6891C33.2235 22.3573 34.2176 22.5575 36.2657 22.1593L40.4976 17.6923C40.9678 10.6392 29.2126 8.99352 28.2722 16.5168L31.5637 21.6891ZM25.9212 25.6858C26.1678 28.4363 26.156 29.8836 25.451 32.0336C23.7068 35.4214 22.5105 37.0537 20.0436 39.5569C9.22887 40.4973 13.2256 22.1593 19.3383 17.6923C22.779 19.1423 24.0378 21.2431 25.9212 25.6858ZM33.9147 41.2027C31.7902 40.3214 30.7063 40.3084 28.9775 41.2027L24.7457 45.6696C25.451 53.428 35.0902 53.428 37.2062 46.8451L33.9147 41.2027ZM40.9678 39.5569L45.905 22.6295C47.7491 21.9067 48.9573 22.2115 51.3124 23.5699C51.3921 24.3185 51.4745 25.039 51.5542 25.7357L51.5543 25.7362C52.3814 32.9665 52.9147 37.6278 47.0805 44.4941C43.4368 44.4098 41.7922 43.778 40.9678 39.5569Z" fill="black"/>
<path d="M36.2657 22.1593L36.3106 22.3901L36.3846 22.3757L36.4364 22.321L36.2657 22.1593ZM31.5637 21.6891L31.3653 21.8153L31.4058 21.879L31.4759 21.9072L31.5637 21.6891ZM40.4976 17.6923L40.6683 17.854L40.7265 17.7925L40.7322 17.708L40.4976 17.6923ZM28.2722 16.5168L28.0389 16.4877L28.0284 16.5716L28.0739 16.643L28.2722 16.5168ZM25.451 32.0336L25.66 32.1413L25.6686 32.1246L25.6744 32.1069L25.451 32.0336ZM25.9212 25.6858L26.1554 25.6649L26.1521 25.6281L26.1377 25.5941L25.9212 25.6858ZM20.0436 39.5569L20.064 39.7912L20.1503 39.7837L20.2111 39.722L20.0436 39.5569ZM19.3383 17.6923L19.4296 17.4757L19.307 17.424L19.1996 17.5025L19.3383 17.6923ZM28.9775 41.2027L28.8695 40.9938L28.8342 41.0121L28.8069 41.041L28.9775 41.2027ZM33.9147 41.2027L34.1178 41.0842L34.0779 41.0158L34.0048 40.9855L33.9147 41.2027ZM24.7457 45.6696L24.575 45.5079L24.5019 45.5851L24.5115 45.6909L24.7457 45.6696ZM37.2062 46.8451L37.43 46.9171L37.4621 46.8173L37.4092 46.7267L37.2062 46.8451ZM45.905 22.6295L45.8192 22.4106L45.7116 22.4528L45.6793 22.5637L45.905 22.6295ZM40.9678 39.5569L40.7421 39.4911L40.7261 39.5459L40.7371 39.602L40.9678 39.5569ZM51.3124 23.5699L51.5461 23.545L51.5335 23.426L51.4298 23.3663L51.3124 23.5699ZM51.5542 25.7357L51.788 25.7111L51.7878 25.709L51.5542 25.7357ZM51.5543 25.7362L51.3204 25.7609L51.3207 25.763L51.5543 25.7362ZM47.0805 44.4941L47.0751 44.7291L47.1871 44.7317L47.2597 44.6463L47.0805 44.4941ZM61.8918 31.5634C61.8918 48.3133 48.3133 61.8917 31.5635 61.8917V62.3619C48.573 62.3619 62.362 48.573 62.362 31.5634H61.8918ZM31.5635 1.2351C48.3133 1.2351 61.8918 14.8136 61.8918 31.5634H62.362C62.362 14.5539 48.573 0.764897 31.5635 0.764897V1.2351ZM1.23516 31.5634C1.23516 14.8136 14.8136 1.2351 31.5635 1.2351V0.764897C14.5539 0.764897 0.764958 14.5539 0.764958 31.5634H1.23516ZM31.5635 61.8917C14.8136 61.8917 1.23516 48.3133 1.23516 31.5634H0.764958C0.764958 48.573 14.5539 62.3619 31.5635 62.3619V61.8917ZM36.2209 21.9285C35.211 22.1249 34.4764 22.1706 33.7966 22.0906C33.1156 22.0105 32.4751 21.8025 31.6515 21.471L31.4759 21.9072C32.3121 22.2438 32.9985 22.4701 33.7416 22.5576C34.4858 22.6452 35.2723 22.592 36.3106 22.3901L36.2209 21.9285ZM40.3269 17.5306L36.0951 21.9976L36.4364 22.321L40.6683 17.854L40.3269 17.5306ZM28.5055 16.546C28.7322 14.7324 29.6058 13.487 30.773 12.7322C31.9462 11.9734 33.432 11.7008 34.8864 11.8719C37.8059 12.2154 40.487 14.3169 40.263 17.6767L40.7322 17.708C40.9784 14.0147 38.017 11.7668 34.9414 11.4049C33.3982 11.2234 31.7983 11.5091 30.5176 12.3373C29.2309 13.1695 28.2824 14.5396 28.0389 16.4877L28.5055 16.546ZM31.762 21.5629L28.4706 16.3906L28.0739 16.643L31.3653 21.8153L31.762 21.5629ZM25.6744 32.1069C26.3939 29.9127 26.4031 28.4284 26.1554 25.6649L25.687 25.7068C25.9324 28.4441 25.9181 29.8545 25.2276 31.9604L25.6744 32.1069ZM20.2111 39.722C22.695 37.2013 23.9052 35.5496 25.66 32.1413L25.242 31.926C23.5084 35.2932 22.3259 36.906 19.8762 39.3919L20.2111 39.722ZM19.1996 17.5025C17.6258 18.6526 16.2087 20.6767 15.135 23.0278C14.0594 25.3831 13.317 28.0912 13.1089 30.6332C12.9012 33.1694 13.223 35.5729 14.3128 37.2914C15.4159 39.0309 17.2835 40.0329 20.064 39.7912L20.0232 39.3227C17.3964 39.5511 15.708 38.6136 14.7099 37.0396C13.6984 35.4446 13.3737 33.1607 13.5775 30.6716C13.7808 28.1883 14.5078 25.5331 15.5628 23.2231C16.6197 20.9088 17.9945 18.9656 19.477 17.8822L19.1996 17.5025ZM26.1377 25.5941C25.196 23.3727 24.4004 21.711 23.3994 20.4226C22.3917 19.1254 21.1827 18.2145 19.4296 17.4757L19.247 17.909C20.9346 18.6202 22.0754 19.4846 23.0281 20.711C23.9876 21.9461 24.7631 23.5562 25.7047 25.7776L26.1377 25.5941ZM29.0856 41.4115C29.9313 40.974 30.5962 40.7704 31.2972 40.7719C32.0035 40.7735 32.7716 40.983 33.8246 41.4198L34.0048 40.9855C32.9333 40.541 32.0971 40.3035 31.2982 40.3017C30.494 40.3 29.7525 40.5371 28.8695 40.9938L29.0856 41.4115ZM24.9164 45.8313L29.1482 41.3644L28.8069 41.041L24.575 45.5079L24.9164 45.8313ZM36.9823 46.7732C35.9591 49.9565 33.1222 51.5422 30.4594 51.4006C29.129 51.3298 27.8466 50.8279 26.8549 49.882C25.8647 48.9374 25.1516 47.5378 24.9798 45.6483L24.5115 45.6909C24.6924 47.6806 25.4487 49.1904 26.5304 50.2222C27.6106 51.2526 29.0024 51.794 30.4344 51.8701C33.2966 52.0224 36.3373 50.3166 37.43 46.9171L36.9823 46.7732ZM33.7116 41.3211L37.0031 46.9636L37.4092 46.7267L34.1178 41.0842L33.7116 41.3211ZM45.6793 22.5637L40.7421 39.4911L41.1935 39.6228L46.1307 22.6953L45.6793 22.5637ZM51.4298 23.3663C50.2488 22.6851 49.329 22.2517 48.4606 22.0882C47.5805 21.9226 46.772 22.0371 45.8192 22.4106L45.9908 22.8484C46.8821 22.499 47.5998 22.4047 48.3736 22.5503C49.1591 22.6982 50.0208 23.0964 51.1949 23.7736L51.4298 23.3663ZM51.7878 25.709C51.7081 25.0122 51.6257 24.2926 51.5461 23.545L51.0786 23.5948C51.1584 24.3445 51.2409 25.0659 51.3206 25.7624L51.7878 25.709ZM51.7881 25.7116L51.788 25.7111L51.3204 25.7603L51.3205 25.7609L51.7881 25.7116ZM47.2597 44.6463C50.198 41.1882 51.5462 38.2684 52.0473 35.2906C52.5463 32.3244 52.2006 29.3169 51.7878 25.7095L51.3207 25.763C51.7352 29.3858 52.0696 32.3241 51.5836 35.2126C51.0995 38.0897 49.7972 40.9337 46.9013 44.3419L47.2597 44.6463ZM40.7371 39.602C41.1529 41.7313 41.7862 43.0186 42.8298 43.7678C43.8643 44.5104 45.2545 44.687 47.0751 44.7291L47.0859 44.2591C45.2628 44.2169 44.0089 44.0354 43.104 43.3858C42.2083 42.7428 41.6071 41.6037 41.1986 39.5119L40.7371 39.602Z" fill="black"/>
<path d="M79.5556 33.0499L34.0001 22L36.6514 36.8115L76.9042 42.2189L81.0018 39.1625L87.9918 38.6923C90.0485 37.3151 89.9142 36.543 87.9918 35.1658H81.0018L79.5556 33.0499Z" fill="black" stroke="black" stroke-width="0.470206"/>
</svg>
