<svg width="63" height="63" viewBox="0 0 63 63" fill="none" xmlns="http://www.w3.org/2000/svg">
<path fill-rule="evenodd" clip-rule="evenodd" d="M31.5634 62.1268C48.4431 62.1268 62.1268 48.4431 62.1268 31.5634C62.1268 14.6837 48.4431 1 31.5634 1C14.6837 1 1 14.6837 1 31.5634C1 48.4431 14.6837 62.1268 31.5634 62.1268ZM31.5636 21.6891C33.2234 22.3573 34.2176 22.5575 36.2657 22.1593L40.4975 17.6923C40.9677 10.6392 29.2126 8.99352 28.2722 16.5168L31.5636 21.6891ZM25.9211 25.6858C26.1677 28.4363 26.1559 29.8836 25.4509 32.0336C23.7067 35.4214 22.5104 37.0537 20.0436 39.5569C9.22881 40.4973 13.2255 22.1593 19.3382 17.6923C22.7789 19.1423 24.0378 21.2431 25.9211 25.6858ZM33.9147 41.2027C31.7901 40.3214 30.7062 40.3084 28.9775 41.2027L24.7456 45.6696C25.4509 53.428 35.0902 53.428 37.2061 46.8451L33.9147 41.2027ZM40.9678 39.5569L45.9049 22.6295C47.7491 21.9067 48.9572 22.2115 51.3123 23.5699C51.392 24.3185 51.4744 25.039 51.5541 25.7357L51.5542 25.7362C52.3814 32.9665 52.9147 37.6278 47.0804 44.4941C43.4367 44.4098 41.7922 43.778 40.9678 39.5569Z" fill="black"/>
<path d="M36.2657 22.1593L36.3105 22.3901L36.3845 22.3757L36.4363 22.321L36.2657 22.1593ZM31.5636 21.6891L31.3653 21.8153L31.4058 21.879L31.4758 21.9072L31.5636 21.6891ZM40.4975 17.6923L40.6682 17.854L40.7265 17.7925L40.7321 17.708L40.4975 17.6923ZM28.2722 16.5168L28.0389 16.4877L28.0284 16.5716L28.0738 16.643L28.2722 16.5168ZM25.4509 32.0336L25.66 32.1413L25.6685 32.1246L25.6743 32.1069L25.4509 32.0336ZM25.9211 25.6858L26.1553 25.6649L26.152 25.6281L26.1376 25.5941L25.9211 25.6858ZM20.0436 39.5569L20.0639 39.7912L20.1502 39.7837L20.211 39.722L20.0436 39.5569ZM19.3382 17.6923L19.4295 17.4757L19.3069 17.424L19.1995 17.5025L19.3382 17.6923ZM28.9775 41.2027L28.8695 40.9938L28.8342 41.0121L28.8068 41.041L28.9775 41.2027ZM33.9147 41.2027L34.1177 41.0842L34.0778 41.0158L34.0047 40.9855L33.9147 41.2027ZM24.7456 45.6696L24.575 45.5079L24.5019 45.5851L24.5115 45.6909L24.7456 45.6696ZM37.2061 46.8451L37.4299 46.9171L37.462 46.8173L37.4092 46.7267L37.2061 46.8451ZM45.9049 22.6295L45.8191 22.4106L45.7116 22.4528L45.6792 22.5637L45.9049 22.6295ZM40.9678 39.5569L40.7421 39.4911L40.7261 39.5459L40.737 39.602L40.9678 39.5569ZM51.3123 23.5699L51.5461 23.545L51.5334 23.426L51.4298 23.3663L51.3123 23.5699ZM51.5541 25.7357L51.788 25.7111L51.7877 25.709L51.5541 25.7357ZM51.5542 25.7362L51.3204 25.7609L51.3206 25.763L51.5542 25.7362ZM47.0804 44.4941L47.075 44.7291L47.187 44.7317L47.2596 44.6463L47.0804 44.4941ZM61.8917 31.5634C61.8917 48.3133 48.3133 61.8917 31.5634 61.8917V62.3619C48.573 62.3619 62.3619 48.573 62.3619 31.5634H61.8917ZM31.5634 1.2351C48.3133 1.2351 61.8917 14.8136 61.8917 31.5634H62.3619C62.3619 14.5539 48.573 0.764897 31.5634 0.764897V1.2351ZM1.2351 31.5634C1.2351 14.8136 14.8136 1.2351 31.5634 1.2351V0.764897C14.5539 0.764897 0.764897 14.5539 0.764897 31.5634H1.2351ZM31.5634 61.8917C14.8136 61.8917 1.2351 48.3133 1.2351 31.5634H0.764897C0.764897 48.573 14.5539 62.3619 31.5634 62.3619V61.8917ZM36.2208 21.9285C35.211 22.1249 34.4763 22.1706 33.7965 22.0906C33.1156 22.0105 32.475 21.8025 31.6514 21.471L31.4758 21.9072C32.312 22.2438 32.9984 22.4701 33.7415 22.5576C34.4858 22.6452 35.2723 22.592 36.3105 22.3901L36.2208 21.9285ZM40.3269 17.5306L36.095 21.9976L36.4363 22.321L40.6682 17.854L40.3269 17.5306ZM28.5055 16.546C28.7322 14.7324 29.6057 13.487 30.7729 12.7322C31.9462 11.9734 33.432 11.7008 34.8864 11.8719C37.8059 12.2154 40.4869 14.3169 40.2629 17.6767L40.7321 17.708C40.9783 14.0147 38.0169 11.7668 34.9413 11.4049C33.3981 11.2234 31.7982 11.5091 30.5176 12.3373C29.2309 13.1695 28.2824 14.5396 28.0389 16.4877L28.5055 16.546ZM31.762 21.5629L28.4705 16.3906L28.0738 16.643L31.3653 21.8153L31.762 21.5629ZM25.6743 32.1069C26.3938 29.9127 26.403 28.4284 26.1553 25.6649L25.687 25.7068C25.9324 28.4441 25.9181 29.8545 25.2275 31.9604L25.6743 32.1069ZM20.211 39.722C22.695 37.2013 23.9052 35.5496 25.66 32.1413L25.2419 31.926C23.5083 35.2932 22.3259 36.906 19.8761 39.3919L20.211 39.722ZM19.1995 17.5025C17.6257 18.6526 16.2087 20.6767 15.135 23.0278C14.0593 25.3831 13.3169 28.0912 13.1088 30.6332C12.9011 33.1694 13.223 35.5729 14.3127 37.2914C15.4158 39.0309 17.2834 40.0329 20.0639 39.7912L20.0232 39.3227C17.3963 39.5511 15.708 38.6136 14.7098 37.0396C13.6984 35.4446 13.3736 33.1607 13.5774 30.6716C13.7807 28.1883 14.5077 25.5331 15.5627 23.2231C16.6196 20.9088 17.9944 18.9656 19.477 17.8822L19.1995 17.5025ZM26.1376 25.5941C25.1959 23.3727 24.4003 21.711 23.3993 20.4226C22.3916 19.1254 21.1826 18.2145 19.4295 17.4757L19.2469 17.909C20.9345 18.6202 22.0753 19.4846 23.028 20.711C23.9875 21.9461 24.763 23.5562 25.7047 25.7776L26.1376 25.5941ZM29.0855 41.4115C29.9313 40.974 30.5961 40.7704 31.2971 40.7719C32.0035 40.7735 32.7715 40.983 33.8246 41.4198L34.0047 40.9855C32.9332 40.541 32.0971 40.3035 31.2981 40.3017C30.4939 40.3 29.7524 40.5371 28.8695 40.9938L29.0855 41.4115ZM24.9163 45.8313L29.1482 41.3643L28.8068 41.041L24.575 45.5079L24.9163 45.8313ZM36.9823 46.7732C35.9591 49.9565 33.1222 51.5422 30.4594 51.4006C29.1289 51.3298 27.8465 50.8279 26.8548 49.882C25.8646 48.9374 25.1515 47.5378 24.9798 45.6483L24.5115 45.6909C24.6924 47.6806 25.4487 49.1904 26.5303 50.2222C27.6105 51.2526 29.0024 51.794 30.4344 51.8701C33.2965 52.0224 36.3372 50.3167 37.4299 46.9171L36.9823 46.7732ZM33.7116 41.3211L37.003 46.9636L37.4092 46.7267L34.1177 41.0842L33.7116 41.3211ZM45.6792 22.5637L40.7421 39.4911L41.1935 39.6228L46.1306 22.6953L45.6792 22.5637ZM51.4298 23.3663C50.2487 22.6851 49.3289 22.2517 48.4605 22.0882C47.5804 21.9226 46.772 22.0371 45.8191 22.4106L45.9907 22.8484C46.882 22.4991 47.5997 22.4047 48.3735 22.5503C49.159 22.6982 50.0208 23.0964 51.1948 23.7736L51.4298 23.3663ZM51.7877 25.709C51.708 25.0122 51.6257 24.2926 51.5461 23.545L51.0785 23.5948C51.1583 24.3445 51.2409 25.0659 51.3206 25.7624L51.7877 25.709ZM51.788 25.7116L51.788 25.7111L51.3203 25.7603L51.3204 25.7609L51.788 25.7116ZM47.2596 44.6463C50.198 41.1882 51.5462 38.2684 52.0472 35.2906C52.5463 32.3244 52.2005 29.3169 51.7878 25.7095L51.3206 25.763C51.7351 29.3858 52.0695 32.3241 51.5835 35.2126C51.0994 38.0897 49.7971 40.9337 46.9013 44.3419L47.2596 44.6463ZM40.737 39.602C41.1529 41.7313 41.7862 43.0186 42.8298 43.7678C43.8642 44.5104 45.2545 44.687 47.075 44.7291L47.0859 44.2591C45.2627 44.2169 44.0089 44.0354 43.104 43.3858C42.2083 42.7428 41.6071 41.6037 41.1985 39.5119L40.737 39.602Z" fill="black"/>
</svg>
