<svg width="503" height="106" viewBox="0 0 503 106" fill="none" xmlns="http://www.w3.org/2000/svg">
<path d="M461.508 10.9849L502.651 45.7802L465.034 97.9731C301.637 55.6545 202.424 146.639 -6.10352e-05 79.8701L15.5168 37.0813L4.702 0.405289C145.764 68.5852 211.828 2.75632 461.508 10.9849Z" fill="#72927B"/>
<path d="M76.096 46.7802L68.9239 77.5534L66.6483 77.2052L70.0601 62.566L49.1777 59.3709L45.7658 74.0101L43.4902 73.6619L50.6623 42.8888L52.9379 43.2369L49.6387 57.3926L70.5212 60.5877L73.8203 46.432L76.096 46.7802Z" fill="white"/>
<path d="M95.496 56.691C98.4054 56.928 100.547 57.8566 101.922 59.4769C103.3 61.0673 103.811 63.2959 103.455 66.1629L101.616 80.9905L99.456 80.8146L99.9729 76.6485C99.0526 77.9612 97.8244 78.9471 96.2883 79.6063C94.756 80.2357 92.985 80.4685 90.9754 80.3048C88.366 80.0922 86.3724 79.3114 84.9946 77.9624C83.6468 76.6158 83.0971 74.9421 83.3453 72.9412C83.5862 71 84.4706 69.4883 85.9985 68.4061C87.5602 67.2965 89.8707 66.8663 92.9301 67.1155L100.983 67.7715L101.217 65.8901C101.487 63.71 101.093 62.0037 100.034 60.7711C99.0052 59.541 97.351 58.8331 95.0714 58.6474C93.5118 58.5203 91.9787 58.667 90.4723 59.0872C88.9959 59.51 87.7072 60.129 86.6063 60.9443L85.6816 59.24C86.981 58.29 88.4908 57.5985 90.2109 57.1655C91.9346 56.7026 93.6963 56.5444 95.496 56.691ZM91.5183 78.4938C93.4679 78.6526 95.1731 78.339 96.634 77.553C98.1249 76.7695 99.3209 75.5547 100.222 73.9086L100.767 69.5186L92.7583 68.8663C90.4487 68.6781 88.7172 68.9594 87.5637 69.7101C86.4401 70.4632 85.7876 71.5715 85.606 73.0348C85.417 74.5579 85.8368 75.8138 86.8654 76.8026C87.8977 77.7615 89.4487 78.3252 91.5183 78.4938Z" fill="white"/>
<path d="M130.486 58.523C132.682 58.5649 134.653 59.1142 136.398 60.1709C138.144 61.2275 139.487 62.6678 140.427 64.4916C141.398 66.3159 141.849 68.3862 141.782 70.7024C141.714 73.0186 141.142 75.0844 140.066 76.8998C139.021 78.6856 137.595 80.073 135.79 81.0618C133.986 82.0205 131.986 82.4789 129.79 82.437C127.714 82.3973 125.847 81.8801 124.19 80.8853C122.534 79.8605 121.265 78.4668 120.383 76.7043L119.972 90.8271L117.716 90.784L118.656 58.4775L120.822 58.5189L120.661 64.0688C121.646 62.2818 122.996 60.908 124.709 59.9476C126.454 58.9576 128.38 58.4827 130.486 58.523ZM129.713 80.4039C131.519 80.4384 133.156 80.0483 134.624 79.2337C136.093 78.419 137.256 77.2674 138.112 75.7789C138.998 74.291 139.469 72.5845 139.525 70.6593C139.581 68.7342 139.21 67.0115 138.411 65.4914C137.643 63.9719 136.548 62.7772 135.129 61.9073C133.709 61.0375 132.096 60.5853 130.291 60.5508C128.486 60.5163 126.849 60.9064 125.38 61.7211C123.942 62.5363 122.779 63.6879 121.893 65.1758C121.037 66.6643 120.581 68.3711 120.525 70.2963C120.469 72.2215 120.825 73.9438 121.594 75.4633C122.392 76.9835 123.486 78.1782 124.876 79.0474C126.296 79.9173 127.908 80.3694 129.713 80.4039Z" fill="white"/>
<path d="M162.243 58.0363C164.438 57.9408 166.456 58.3648 168.298 59.3085C170.139 60.2521 171.616 61.6032 172.727 63.3616C173.869 65.1187 174.517 67.1533 174.67 69.4654C174.823 71.7775 174.45 73.8717 173.549 75.7478C172.676 77.5927 171.387 79.0642 169.681 80.1624C167.973 81.2305 166.021 81.8124 163.827 81.908C161.752 81.9983 159.841 81.5997 158.094 80.7122C156.345 79.7946 154.946 78.4853 153.899 76.7843L154.834 90.8821L152.579 90.9803L150.44 58.7311L152.604 58.6368L152.972 64.1768C153.784 62.3346 154.999 60.8814 156.617 59.8172C158.263 58.7216 160.139 58.128 162.243 58.0363ZM163.557 79.887C165.361 79.8085 166.956 79.3174 168.344 78.4138C169.731 77.5102 170.781 76.29 171.493 74.7533C172.235 73.2153 172.543 71.4854 172.415 69.5636C172.288 67.6419 171.753 65.9487 170.812 64.484C169.9 63.018 168.695 61.896 167.196 61.1181C165.698 60.3402 164.046 59.9905 162.242 60.0691C160.438 60.1476 158.843 60.6387 157.455 61.5423C156.098 62.4446 155.048 63.6648 154.306 65.2028C153.594 66.7395 153.302 68.4688 153.429 70.3905C153.557 72.3122 154.076 74.0061 154.988 75.4721C155.929 76.9368 157.134 78.0588 158.603 78.838C160.102 79.6159 161.753 79.9656 163.557 79.887Z" fill="white"/>
<path d="M201.061 54.9628L193.153 82.6434C192.575 84.7869 191.754 86.3512 190.691 87.3361C189.658 88.318 188.334 88.8917 186.717 89.0572C185.639 89.1676 184.594 89.0935 183.58 88.8348C182.596 88.573 181.722 88.1339 180.956 87.5175L181.815 85.7077C183.202 86.8041 184.749 87.265 186.456 87.0902C187.593 86.9737 188.518 86.5619 189.228 85.8547C189.939 85.1475 190.521 84.0004 190.973 82.4135L191.792 79.4749L177.621 57.3635L180.001 57.1198L192.635 76.9869L198.771 55.1974L201.061 54.9628Z" fill="white"/>
<path d="M253.393 56.7946C255.701 56.9936 257.538 57.7064 258.904 58.9328C260.3 60.1564 261.156 61.8399 261.472 63.9834C261.864 66.6329 261.191 68.7666 259.455 70.3843C257.719 72.002 254.934 72.9966 251.1 73.3682L237.083 74.727L232.467 43.468L245.587 42.1963C249.001 41.8654 251.755 42.308 253.849 43.5243C255.968 44.708 257.217 46.5799 257.595 49.1402C257.858 50.9264 257.601 52.4763 256.823 53.7898C256.075 55.1003 254.931 56.102 253.393 56.7946ZM235.049 45.2107L236.888 57.6697L247.626 56.6288C250.382 56.3617 252.417 55.6361 253.731 54.4518C255.07 53.2349 255.588 51.5994 255.285 49.5452C254.986 47.5209 254.011 46.0603 252.359 45.1635C250.733 44.234 248.542 43.9028 245.787 44.1699L235.049 45.2107ZM250.81 71.4034C253.866 71.1072 256.095 70.3627 257.499 69.1698C258.928 67.9442 259.48 66.2298 259.155 64.0268C258.829 61.8238 257.796 60.2783 256.055 59.3902C254.343 58.4992 251.96 58.2017 248.905 58.4979L237.178 59.6345L239.084 72.54L250.81 71.4034Z" fill="white"/>
<path d="M269.965 48.2228L272.217 48.0618L274.769 71.4861L272.518 71.6471L269.965 48.2228ZM270.47 42.4433C269.96 42.4798 269.507 42.3464 269.111 42.0431C268.711 41.7098 268.484 41.2889 268.428 40.7804C268.373 40.2718 268.506 39.8251 268.827 39.4404C269.148 39.0556 269.564 38.845 270.074 38.8085C270.584 38.772 271.039 38.9203 271.438 39.2535C271.834 39.5569 272.06 39.9628 272.116 40.4714C272.171 40.9799 272.038 41.4266 271.717 41.8114C271.396 42.1961 270.98 42.4068 270.47 42.4433Z" fill="white"/>
<path d="M289.279 52.1496C289.86 50.4014 290.881 49.0363 292.34 48.0545C293.797 47.0427 295.622 46.4781 297.816 46.3606L297.996 48.5652L297.451 48.5491C294.837 48.6891 292.86 49.6233 291.522 51.3517C290.182 53.0502 289.63 55.3541 289.868 58.2635L290.865 70.5009L288.612 70.6216L286.697 47.1365L288.86 47.0207L289.279 52.1496Z" fill="white"/>
<path d="M321.381 67.7661C320.837 68.3262 320.136 68.7711 319.279 69.1008C318.451 69.3994 317.571 69.5643 316.638 69.5955C314.593 69.6638 312.986 69.1606 311.816 68.0858C310.645 66.9809 310.009 65.4216 309.906 63.408L309.123 48.0352L304.792 48.18L304.694 46.2415L309.025 46.0967L308.763 40.9575L311.019 40.8821L311.28 46.0213L318.769 45.771L318.868 47.7095L311.379 47.9598L312.15 63.1072C312.228 64.64 312.649 65.8 313.412 66.5874C314.204 67.3437 315.321 67.6977 316.765 67.6494C318.239 67.6002 319.435 67.1237 320.353 66.2199L321.381 67.7661Z" fill="white"/>
<path d="M341.546 45.2201C344.495 45.1964 346.838 46.0353 348.574 47.7368C350.31 49.4382 351.198 51.8988 351.237 55.1185L351.405 68.8851L349.149 68.9032L348.983 55.3171C348.95 52.6691 348.249 50.6585 346.878 49.2851C345.537 47.9116 343.662 47.2344 341.255 47.2537C338.487 47.2759 336.315 48.1209 334.74 49.7887C333.166 51.4565 332.395 53.6896 332.43 56.4881L332.583 69.036L330.326 69.0541L329.917 35.5629L332.174 35.5448L332.355 50.3947C333.148 48.7632 334.336 47.5048 335.92 46.6194C337.504 45.7039 339.38 45.2374 341.546 45.2201Z" fill="white"/>
<path d="M384.806 35.9871L383.606 69.4594L381.395 69.4073L381.594 63.8587C380.596 65.6713 379.236 67.054 377.516 68.0068C375.796 68.9596 373.867 69.4109 371.731 69.3606C369.535 69.309 367.568 68.751 365.83 67.6867C364.091 66.6225 362.743 65.1761 361.785 63.3476C360.856 61.5198 360.434 59.4481 360.517 57.1324C360.6 54.8167 361.17 52.7683 362.227 50.9872C363.316 49.1768 364.766 47.7962 366.576 46.8455C368.388 45.8647 370.392 45.4002 372.588 45.4519C374.694 45.5014 376.557 46.0418 378.176 47.0732C379.825 48.1053 381.099 49.5198 381.998 51.3168L382.549 35.934L384.806 35.9871ZM371.939 67.3338C373.745 67.3763 375.369 66.9931 376.813 66.1843C378.288 65.3762 379.458 64.2299 380.324 62.7453C381.22 61.2614 381.703 59.5571 381.772 57.6323C381.841 55.7076 381.481 53.9835 380.693 52.46C379.934 50.9372 378.848 49.7378 377.434 48.8617C376.05 47.9864 374.456 47.5275 372.651 47.485C370.846 47.4426 369.206 47.8254 367.732 48.6335C366.288 49.4423 365.117 50.5886 364.221 52.0725C363.355 53.5571 362.887 55.2618 362.818 57.1865C362.749 59.1112 363.094 60.835 363.853 62.3578C364.641 63.8813 365.727 65.0807 367.111 65.9561C368.525 66.8321 370.134 67.2914 371.939 67.3338Z" fill="white"/>
<path d="M406.04 46.6861C408.955 46.8468 411.131 47.7199 412.567 49.3054C414.006 50.861 414.605 53.0781 414.363 55.957L413.113 70.8458L410.949 70.7265L411.301 66.5433C410.434 67.8813 409.246 68.9004 407.738 69.6005C406.233 70.2707 404.474 70.5503 402.461 70.4393C399.847 70.2952 397.825 69.5661 396.396 68.2521C394.997 66.9398 394.382 65.2791 394.55 63.2699C394.714 61.3207 395.537 59.7844 397.02 58.6611C398.536 57.5095 400.826 57.0182 403.891 57.1872L411.958 57.632L412.117 55.7427C412.301 53.5537 411.84 51.8562 410.734 50.6504C409.657 49.4463 407.978 48.7812 405.694 48.6553C404.131 48.5692 402.606 48.7562 401.119 49.2165C399.661 49.6784 398.399 50.3319 397.332 51.1768L396.341 49.4954C397.601 48.5104 399.081 47.7786 400.782 47.2999C402.485 46.7913 404.238 46.5867 406.04 46.6861ZM402.931 68.6125C404.884 68.7201 406.575 68.3614 408.002 67.5364C409.46 66.7129 410.606 65.4656 411.441 63.7944L411.811 59.3862L403.788 58.9439C401.475 58.8164 399.757 59.1434 398.635 59.9251C397.543 60.7084 396.935 61.8348 396.811 63.3042C396.683 64.8335 397.152 66.0795 398.218 67.0421C399.287 67.9747 400.858 68.4981 402.931 68.6125Z" fill="white"/>
<path d="M450.267 50.0458L434.796 75.5764C433.631 77.5598 432.393 78.9337 431.082 79.6979C429.801 80.4647 428.351 80.7797 426.732 80.6429C425.653 80.5517 424.656 80.2865 423.743 79.8472C422.859 79.4105 422.132 78.8211 421.56 78.0789L422.904 76.4726C423.946 77.7976 425.321 78.5324 427.031 78.6768C428.17 78.773 429.185 78.542 430.075 77.9836C430.966 77.4252 431.854 76.414 432.739 74.9501L434.362 72.2359L426.787 48.0622L429.171 48.2636L435.881 69.9657L447.973 49.852L450.267 50.0458Z" fill="white"/>
<path d="M461.415 43.111L464.018 43.3881L459.965 65.5748L458.259 65.3933L461.415 43.111ZM457.631 74.6185C457.122 74.5643 456.717 74.3399 456.416 73.9452C456.115 73.5505 456.005 73.1007 456.087 72.5957C456.169 72.0907 456.418 71.6791 456.835 71.3609C457.252 71.0426 457.715 70.9106 458.224 70.9647C458.762 71.022 459.182 71.248 459.483 71.6427C459.785 72.0374 459.894 72.4872 459.813 72.9922C459.731 73.4972 459.481 73.9088 459.064 74.2271C458.648 74.5453 458.17 74.6758 457.631 74.6185Z" fill="white"/>
</svg>
