<svg width="238" height="163" viewBox="0 0 238 163" fill="none" xmlns="http://www.w3.org/2000/svg">
<g filter="url(#filter0_df_1_125)">
<path d="M48.5214 39.7573C36.0315 28.5727 9.42259 64.0888 30.6011 71.349C12.4998 74.0962 20.1024 107.258 34.5834 104.118C27.8859 110.593 34.5834 130.216 48.5214 123.348C41.6429 144.147 100.653 160.63 103.911 144.147C109.161 178.094 163.284 172.992 163.284 146.502C191.341 164.947 200.619 128.842 191.341 114.518C203.288 132.963 226.819 104.118 213.968 99.4088C230.621 76.0584 191.341 56.4362 175.231 69.3868C184.462 56.4362 154.595 23.2747 141.2 42.5044C146.812 23.2747 108.437 8.16562 103.911 30.1425C100.653 12.0901 48.5214 13.2674 48.5214 39.7573Z" fill="white"/>
</g>
<defs>
<filter id="filter0_df_1_125" x="1.52588e-05" y="0" width="238" height="190" filterUnits="userSpaceOnUse" color-interpolation-filters="sRGB">
<feFlood flood-opacity="0" result="BackgroundImageFix"/>
<feColorMatrix in="SourceAlpha" type="matrix" values="0 0 0 0 0 0 0 0 0 0 0 0 0 0 0 0 0 0 127 0" result="hardAlpha"/>
<feOffset dy="2"/>
<feGaussianBlur stdDeviation="10"/>
<feColorMatrix type="matrix" values="0 0 0 0 0 0 0 0 0 0 0 0 0 0 0 0 0 0 0.05 0"/>
<feBlend mode="normal" in2="BackgroundImageFix" result="effect1_dropShadow_1_125"/>
<feBlend mode="normal" in="SourceGraphic" in2="effect1_dropShadow_1_125" result="shape"/>
<feGaussianBlur stdDeviation="2" result="effect2_foregroundBlur_1_125"/>
</filter>
</defs>
</svg>
