<svg width="329" height="238" viewBox="0 0 329 238" fill="none" xmlns="http://www.w3.org/2000/svg">
<path d="M247.768 72.2368C253.646 62.5975 283.504 56.4849 280.918 30.3884" stroke="black" stroke-width="0.470206"/>
<path d="M265.636 33.6793C260.168 34.0653 264.696 40.6608 264.696 44.9643C264.696 52.4876 264.004 58.1848 260.934 62.597" stroke="black" stroke-width="0.470206"/>
<path d="M267.282 81.1702C269.163 66.8289 279.272 51.3121 280.683 30.8581" stroke="black" stroke-width="0.470206"/>
<path d="M264.696 59.3056C272.432 51.037 276.316 45.508 280.448 30.1528" stroke="black" stroke-width="0.470206"/>
<circle cx="25.831" cy="186.261" r="24.2156" fill="#808080"/>
<circle cx="304.193" cy="186.261" r="24.2156" fill="#808080"/>
<path fill-rule="evenodd" clip-rule="evenodd" d="M19.2479 181.324C16.1915 189.083 20.6602 191.529 29.8275 189.553C48.1305 191.417 74.0235 197.625 104.566 204.947C116.394 207.783 128.92 210.786 141.972 213.768L245.182 91.7498C250.36 86.0932 252.335 86.1517 255.292 88.2233C261.404 95.0413 282.658 144.823 300.196 187.202C305.44 190.592 306.65 188.68 308.19 183.91C284.341 129.437 272.201 98.9069 255.292 44.4941L95.4213 67.7693C95.4213 67.7693 98.0881 75.8496 98.4777 81.1702C100.347 83.5073 78.513 109.68 54.5781 138.371L54.5777 138.371C42.3958 152.973 29.6698 168.228 19.2479 181.324ZM28.4171 181.089C25.6447 179.391 26.0058 177.981 27.7117 175.212C29.3063 177.744 84.2084 109.395 95.9303 94.8025C97.0272 93.4368 97.7461 92.542 98.0076 92.2201C101.064 88.4584 102.71 91.0445 103.18 92.2201C103.65 93.3956 110.023 111.74 117.286 137.36C124.948 156.865 131.84 187.93 131.392 190.963C130.049 195.663 128.925 197.821 124.809 198.957C111.053 196.394 97.5671 194.156 84.9193 192.058L84.9189 192.058L84.9186 192.057C62.34 188.311 42.4312 185.007 28.4171 181.089ZM109.528 80.2298L114.23 74.1171C117.432 71.0909 119.48 70.7639 123.164 70.3555L235.308 54.3685C239.455 53.874 240.718 54.5418 242.126 56.4844C243.632 60.9833 243.882 63.5055 242.126 68.0045L145.263 187.907L138.21 186.496L127.395 139.946L109.528 80.2298Z" fill="#0070CE"/>
<path d="M29.8275 189.553L29.8513 189.319L29.8143 189.315L29.778 189.323L29.8275 189.553ZM19.2479 181.324L19.0639 181.178L19.042 181.205L19.0291 181.238L19.2479 181.324ZM104.566 204.947L104.621 204.719L104.621 204.719L104.566 204.947ZM141.972 213.768L141.919 213.998L142.059 214.029L142.151 213.92L141.972 213.768ZM245.182 91.7498L245.009 91.591L245.003 91.598L245.182 91.7498ZM255.292 88.2233L255.467 88.0663L255.449 88.0462L255.426 88.0307L255.292 88.2233ZM300.196 187.202L299.979 187.292L300.007 187.359L300.069 187.399L300.196 187.202ZM308.19 183.91L308.413 183.983L308.441 183.898L308.405 183.816L308.19 183.91ZM255.292 44.4941L255.516 44.4243L255.456 44.2325L255.258 44.2614L255.292 44.4941ZM95.4213 67.7693L95.3875 67.5366L95.1103 67.577L95.1981 67.843L95.4213 67.7693ZM98.4777 81.1702L98.2432 81.1874L98.2485 81.2601L98.2941 81.3171L98.4777 81.1702ZM54.5781 138.371L54.7572 138.523L54.7586 138.521L54.5781 138.371ZM54.5777 138.371L54.3986 138.219L54.3972 138.22L54.5777 138.371ZM27.7117 175.212L27.9107 175.086L27.7095 174.767L27.5116 175.088L27.7117 175.212ZM28.4171 181.089L28.2943 181.29L28.3222 181.307L28.3538 181.316L28.4171 181.089ZM95.9303 94.8025L96.1136 94.9497L96.1136 94.9497L95.9303 94.8025ZM98.0076 92.2201L97.8251 92.0718L97.8251 92.0718L98.0076 92.2201ZM117.286 137.36L117.06 137.424L117.063 137.435L117.067 137.446L117.286 137.36ZM131.392 190.963L131.618 191.028L131.623 191.013L131.625 190.998L131.392 190.963ZM124.809 198.957L124.766 199.188L124.82 199.198L124.872 199.184L124.809 198.957ZM84.9193 192.058L84.8708 192.288L84.8808 192.29L84.9193 192.058ZM84.9189 192.058L84.9673 191.827L84.965 191.827L84.9189 192.058ZM84.9186 192.057L84.9648 191.827L84.9571 191.826L84.9186 192.057ZM114.23 74.1171L114.068 73.9463L114.055 73.959L114.043 73.9738L114.23 74.1171ZM109.528 80.2298L109.341 80.0865L109.268 80.1819L109.302 80.2972L109.528 80.2298ZM123.164 70.3555L123.19 70.5893L123.197 70.5882L123.164 70.3555ZM235.308 54.3685L235.28 54.135L235.275 54.1357L235.308 54.3685ZM242.126 56.4844L242.349 56.4098L242.337 56.3756L242.316 56.3464L242.126 56.4844ZM242.126 68.0045L242.309 68.1522L242.332 68.1239L242.345 68.0899L242.126 68.0045ZM145.263 187.907L145.217 188.138L145.357 188.166L145.446 188.055L145.263 187.907ZM138.21 186.496L137.981 186.55L138.016 186.697L138.164 186.727L138.21 186.496ZM127.395 139.946L127.624 139.893L127.623 139.886L127.621 139.879L127.395 139.946ZM29.778 189.323C27.498 189.814 25.5211 190.028 23.8875 189.957C22.2516 189.885 20.9796 189.528 20.0898 188.897C19.2091 188.272 18.6823 187.365 18.5563 186.137C18.4292 184.899 18.7097 183.332 19.4666 181.41L19.0291 181.238C18.2579 183.196 17.9508 184.843 18.0885 186.185C18.2272 187.536 18.8175 188.571 19.8178 189.281C20.8091 189.984 22.1821 190.353 23.8669 190.427C25.5539 190.5 27.5734 190.279 29.8771 189.783L29.778 189.323ZM104.621 204.719C74.0855 197.398 48.1738 191.185 29.8513 189.319L29.8037 189.787C48.0871 191.649 73.9616 197.852 104.511 205.176L104.621 204.719ZM142.024 213.539C128.974 210.557 116.449 207.554 104.621 204.719L104.511 205.176C116.339 208.011 128.866 211.015 141.919 213.998L142.024 213.539ZM245.003 91.598L141.792 213.617L142.151 213.92L245.362 91.9017L245.003 91.598ZM255.426 88.0307C253.932 86.9838 252.621 86.3986 251.005 86.8625C249.425 87.3161 247.597 88.7636 245.009 91.5911L245.356 91.9086C247.945 89.0795 249.694 87.7279 251.135 87.3145C252.54 86.9113 253.694 87.3912 255.157 88.4158L255.426 88.0307ZM300.414 187.112C291.644 165.922 281.945 142.88 273.674 124.282C269.539 114.983 265.759 106.793 262.631 100.501C261.067 97.3548 259.664 94.6808 258.461 92.5788C257.26 90.4813 256.249 88.9387 255.467 88.0663L255.116 88.3802C255.863 89.2124 256.853 90.7168 258.053 92.8124C259.25 94.9033 260.648 97.5682 262.21 100.71C265.334 106.994 269.11 115.176 273.245 124.473C281.513 143.065 291.21 166.103 299.979 187.292L300.414 187.112ZM307.966 183.838C307.581 185.029 307.222 186.027 306.82 186.806C306.417 187.585 305.984 188.119 305.466 188.411C304.957 188.699 304.331 188.773 303.499 188.561C302.66 188.347 301.626 187.846 300.324 187.004L300.069 187.399C301.388 188.252 302.472 188.784 303.383 189.016C304.3 189.25 305.057 189.183 305.698 188.821C306.33 188.463 306.816 187.836 307.237 187.021C307.659 186.206 308.028 185.176 308.413 183.983L307.966 183.838ZM255.067 44.5638C271.98 98.9873 284.124 129.526 307.974 184.005L308.405 183.816C284.559 129.348 272.422 98.8264 255.516 44.4243L255.067 44.5638ZM95.4552 68.002L255.325 44.7267L255.258 44.2614L95.3875 67.5366L95.4552 68.002ZM98.7122 81.153C98.5157 78.4696 97.7466 75.1016 97.0306 72.414C96.672 71.0682 96.3257 69.8891 96.069 69.0465C95.9406 68.6251 95.8346 68.2877 95.7607 68.0555C95.7237 67.9394 95.6948 67.8496 95.675 67.7888C95.6651 67.7583 95.6576 67.7351 95.6524 67.7195C95.6499 67.7117 95.6479 67.7058 95.6466 67.7018C95.646 67.6998 95.6455 67.6983 95.6451 67.6972C95.645 67.6967 95.6448 67.6963 95.6447 67.6961C95.6447 67.6959 95.6447 67.6958 95.6446 67.6957C95.6446 67.6957 95.6446 67.6956 95.4213 67.7693C95.1981 67.843 95.1981 67.843 95.1981 67.843C95.1981 67.8431 95.1981 67.8432 95.1982 67.8433C95.1982 67.8435 95.1984 67.8439 95.1985 67.8443C95.1988 67.8453 95.1993 67.8467 95.1999 67.8486C95.2012 67.8524 95.2031 67.8581 95.2056 67.8658C95.2106 67.881 95.218 67.9039 95.2278 67.9339C95.2473 67.994 95.276 68.083 95.3127 68.1982C95.3861 68.4287 95.4915 68.7642 95.6192 69.1835C95.8747 70.0222 96.2194 71.1957 96.5762 72.5351C97.291 75.2178 98.0501 78.5503 98.2432 81.1874L98.7122 81.153ZM54.7586 138.521C66.7253 124.177 78.17 110.458 86.3892 100.033C90.4983 94.8216 93.8051 90.4284 95.9685 87.1897C97.0494 85.5716 97.8503 84.2336 98.3229 83.2217C98.5586 82.7169 98.7182 82.2818 98.7866 81.927C98.8526 81.5846 98.8459 81.2542 98.6613 81.0233L98.2941 81.3171C98.3431 81.3784 98.385 81.5262 98.3249 81.838C98.2672 82.1374 98.126 82.5322 97.8969 83.0228C97.4397 84.0016 96.6546 85.3159 95.5775 86.9285C93.4248 90.151 90.1276 94.5323 86.02 99.7422C77.8057 110.161 66.3658 123.874 54.3976 138.22L54.7586 138.521ZM54.7568 138.523L54.7572 138.523L54.399 138.218L54.3986 138.219L54.7568 138.523ZM19.4318 181.471C29.8517 168.377 42.5759 153.124 54.7582 138.522L54.3972 138.22C42.2158 152.822 29.4879 168.079 19.0639 181.178L19.4318 181.471ZM27.5116 175.088C27.0836 175.783 26.7333 176.403 26.4956 176.968C26.2579 177.534 26.1264 178.06 26.1502 178.563C26.1989 179.594 26.8885 180.429 28.2943 181.29L28.5398 180.889C27.1732 180.052 26.6572 179.332 26.6199 178.541C26.6006 178.134 26.706 177.682 26.9291 177.151C27.1523 176.62 27.487 176.025 27.9119 175.335L27.5116 175.088ZM95.747 94.6552C89.886 101.952 73.231 122.686 57.8421 141.279C50.1474 150.576 42.7709 159.336 37.2191 165.612C34.4426 168.751 32.1257 171.265 30.4549 172.915C29.618 173.741 28.9505 174.342 28.4719 174.697C28.2298 174.877 28.0517 174.981 27.9333 175.024C27.8735 175.046 27.8496 175.045 27.8503 175.045C27.8627 175.046 27.893 175.058 27.9107 175.086L27.5128 175.337C27.5803 175.444 27.6864 175.5 27.8001 175.513C27.9019 175.523 28.0044 175.499 28.0956 175.466C28.2792 175.398 28.5014 175.261 28.7519 175.075C29.2584 174.7 29.9453 174.078 30.7852 173.249C32.4678 171.588 34.7934 169.064 37.5713 165.924C43.1284 159.641 50.509 150.876 58.2044 141.579C73.5957 122.983 90.2527 102.246 96.1136 94.9497L95.747 94.6552ZM97.8251 92.0718C97.563 92.3944 96.8436 93.29 95.747 94.6552L96.1136 94.9497C97.2109 93.5836 97.9291 92.6896 98.1901 92.3683L97.8251 92.0718ZM103.398 92.1328C103.275 91.8246 103.074 91.4223 102.79 91.0519C102.506 90.6826 102.128 90.3312 101.647 90.1488C100.648 89.7699 99.3733 90.1664 97.8251 92.0718L98.1901 92.3683C99.6983 90.5121 100.775 90.3208 101.48 90.5884C101.851 90.7293 102.164 91.0098 102.417 91.3384C102.668 91.666 102.85 92.0278 102.962 92.3074L103.398 92.1328ZM117.512 137.296C110.248 111.674 103.873 93.3199 103.398 92.1328L102.962 92.3074C103.427 93.4713 109.797 111.807 117.06 137.424L117.512 137.296ZM131.625 190.998C131.657 190.781 131.654 190.461 131.626 190.059C131.598 189.653 131.542 189.149 131.462 188.557C131.3 187.374 131.037 185.83 130.685 184.006C129.981 180.358 128.922 175.577 127.608 170.282C124.983 159.694 121.341 147.04 117.505 137.274L117.067 137.446C120.893 147.185 124.528 159.816 127.152 170.395C128.464 175.684 129.522 180.457 130.224 184.095C130.575 185.915 130.836 187.449 130.996 188.621C131.076 189.207 131.13 189.7 131.157 190.092C131.185 190.489 131.184 190.766 131.16 190.929L131.625 190.998ZM124.872 199.184C126.965 198.606 128.325 197.759 129.327 196.439C130.32 195.131 130.947 193.377 131.618 191.028L131.166 190.899C130.494 193.249 129.887 194.924 128.953 196.154C128.029 197.372 126.769 198.172 124.747 198.73L124.872 199.184ZM84.8808 192.29C97.529 194.388 111.012 196.626 124.766 199.188L124.852 198.726C111.093 196.163 97.6053 193.924 84.9578 191.826L84.8808 192.29ZM84.8704 192.288L84.8709 192.288L84.9677 191.828L84.9673 191.827L84.8704 192.288ZM84.8725 192.288L84.8727 192.288L84.965 191.827L84.9647 191.827L84.8725 192.288ZM28.3538 181.316C42.3831 185.238 62.3069 188.544 84.8801 192.289L84.9571 191.826C62.3731 188.078 42.4793 184.776 28.4804 180.863L28.3538 181.316ZM114.043 73.9738L109.341 80.0865L109.714 80.3732L114.416 74.2605L114.043 73.9738ZM123.138 70.1218C121.299 70.3257 119.838 70.5116 118.434 71.0343C117.024 71.5592 115.686 72.4179 114.068 73.9463L114.391 74.288C115.976 72.7901 117.263 71.9722 118.598 71.4749C119.94 70.9754 121.345 70.7937 123.19 70.5892L123.138 70.1218ZM235.275 54.1357L123.13 70.1227L123.197 70.5882L235.341 54.6012L235.275 54.1357ZM242.316 56.3464C241.6 55.3576 240.896 54.6609 239.821 54.2903C238.758 53.9242 237.361 53.8869 235.28 54.135L235.336 54.6019C237.402 54.3556 238.71 54.4049 239.667 54.7348C240.612 55.0601 241.244 55.6686 241.936 56.6224L242.316 56.3464ZM242.345 68.0899C243.23 65.8224 243.616 64.0357 243.584 62.2402C243.552 60.4483 243.104 58.6655 242.349 56.4098L241.903 56.559C242.654 58.8021 243.084 60.53 243.114 62.2486C243.145 63.9637 242.778 65.6876 241.907 67.919L242.345 68.0899ZM145.446 188.055L242.309 68.1522L241.943 67.8567L145.08 187.759L145.446 188.055ZM138.164 186.727L145.217 188.138L145.309 187.677L138.256 186.266L138.164 186.727ZM127.166 139.999L137.981 186.55L138.439 186.443L127.624 139.893L127.166 139.999ZM109.302 80.2972L127.17 140.013L127.621 139.879L109.753 80.1624L109.302 80.2972Z" fill="black"/>
<path d="M95.8917 67.7693L104.591 66.3587L88.6035 16.5168L70.2654 18.1626C69.325 23.0997 82.7259 20.9838 83.6663 24.9806L95.8917 67.7693Z" fill="#32302C" stroke="black" stroke-width="0.470206"/>
<path d="M88.6032 16.5168L99.8881 8.99351L98.0073 7.58289L88.133 13.9307H83.666C84.1429 12.1163 82.836 10.9856 80.8448 8.99351L70.2651 16.0466V18.1625L88.6032 16.5168Z" fill="#262624" stroke="black" stroke-width="0.470206"/>
<path d="M64.388 17.6923C55.3725 12.5176 50.3542 9.66235 43.2287 6.87757C42.6717 4.52325 43.3718 3.45098 47.2255 2.17551C66.9741 4.99675 98.9482 2.88082 118.697 4.99675C120.768 6.71134 121.463 7.7152 120.578 9.69881C104.902 8.78799 96.1118 8.29991 80.1399 10.6392C75.6746 15.8118 72.4648 17.699 64.388 17.6923Z" fill="#434145" stroke="black" stroke-width="0.470206"/>
<path d="M252.47 40.4973L234.602 47.3153L255.292 44.4941L252.47 40.4973Z" fill="#5C5C5C" stroke="black" stroke-width="0.470206"/>
<path d="M240.01 39.7921L241.656 44.4941L252.471 40.7325C252.471 38.8516 247.533 37.2059 251.06 35.7953L274.1 32.739V21.6891V19.3381L266.107 20.2785L264.226 22.6295L246.593 25.6859L245.888 24.0401L236.484 27.0965V28.5071C233.662 30.3879 234.603 33.4443 238.129 32.739L238.835 35.3251C236.013 37.2059 237.189 40.2623 240.01 39.7921Z" fill="#08070D" stroke="black" stroke-width="0.470206"/>
<path d="M267.752 32.0336C262.815 30.3879 262.58 23.5699 268.693 21.6891L282.564 22.3944L298.316 35.09C300.667 44.4941 296.398 63.5724 259.759 72.2363L257.643 64.713C271.279 60.246 296.2 51.7823 288.206 35.7953L281.623 31.5634C276.397 31.9263 273.461 32.124 267.752 32.0336Z" fill="#1B1916" stroke="black" stroke-width="0.470206"/>
<path d="M297.375 35.3251C286.778 29.6361 283.628 26.9531 281.858 22.8646C289.754 21.6096 293.934 20.5765 299.726 16.5168C301.973 5.44016 304.415 1.57525 311.952 1L317.359 4.29145V7.34779L319.005 9.46372L315.478 15.5764V19.5732L317.359 22.8646C316.869 35.7933 314.773 48.0206 319.945 51.5472C320.187 52.4654 320.235 52.98 319.945 53.8982C318.585 53.9224 317.806 53.1975 316.419 52.0174V53.8982C310.416 49.5122 309.173 47.1422 305.369 42.8484C303.077 40.2622 307.014 37.9112 308.895 33.6793C308.473 32.3286 308.711 30.3278 309.366 26.156L306.309 26.6263C303.055 29.7565 301.072 30.9493 297.375 32.5038V35.3251Z" fill="#333332" stroke="black" stroke-width="0.470206"/>
<path d="M12.1947 233.282L24.4201 234.222L25.8307 232.577C28.4169 230.461 27.7116 223.643 24.4201 222.702L33.5891 209.301C33.803 200.613 32.3709 200.06 29.3573 197.546C18.578 193.528 12.4835 191.8 1.1449 193.55C2.14895 198.234 4.23527 200.356 8.6682 203.894C14.3427 208.423 18.3164 208.306 26.536 209.301L25.8307 216.119C19.8651 221.709 16.6646 225.143 11.0192 231.401L12.1947 233.282Z" fill="black" stroke="black" stroke-width="0.470206"/>
<path fill-rule="evenodd" clip-rule="evenodd" d="M136.094 236.809C152.974 236.809 166.658 223.125 166.658 206.245C166.658 189.365 152.974 175.682 136.094 175.682C119.215 175.682 105.531 189.365 105.531 206.245C105.531 223.125 119.215 236.809 136.094 236.809ZM136.094 196.371C137.754 197.039 138.748 197.239 140.796 196.841L145.028 192.374C145.499 185.321 133.743 183.675 132.803 191.199L136.094 196.371ZM130.452 200.368C130.698 203.118 130.687 204.565 129.982 206.715C128.238 210.103 127.041 211.735 124.574 214.239C113.76 215.179 117.756 196.841 123.869 192.374C127.31 193.824 128.569 195.925 130.452 200.368ZM138.445 215.884C136.321 215.003 135.237 214.99 133.508 215.884L129.276 220.351C129.982 228.11 139.621 228.11 141.737 221.527L138.445 215.884ZM145.499 214.239L150.436 197.311C152.28 196.588 153.488 196.893 155.843 198.252C155.923 199 156.005 199.721 156.085 200.417L156.085 200.418C156.912 207.648 157.445 212.309 151.611 219.176C147.968 219.092 146.323 218.46 145.499 214.239Z" fill="black"/>
<path d="M140.796 196.841L140.841 197.072L140.915 197.057L140.967 197.003L140.796 196.841ZM136.094 196.371L135.896 196.497L135.937 196.561L136.007 196.589L136.094 196.371ZM145.028 192.374L145.199 192.536L145.257 192.474L145.263 192.39L145.028 192.374ZM132.803 191.199L132.57 191.169L132.559 191.253L132.605 191.325L132.803 191.199ZM129.982 206.715L130.191 206.823L130.199 206.806L130.205 206.789L129.982 206.715ZM130.452 200.368L130.686 200.347L130.683 200.31L130.668 200.276L130.452 200.368ZM124.574 214.239L124.595 214.473L124.681 214.465L124.742 214.404L124.574 214.239ZM123.869 192.374L123.96 192.157L123.838 192.106L123.73 192.184L123.869 192.374ZM133.508 215.884L133.4 215.676L133.365 215.694L133.338 215.723L133.508 215.884ZM138.445 215.884L138.649 215.766L138.609 215.698L138.536 215.667L138.445 215.884ZM129.276 220.351L129.106 220.19L129.033 220.267L129.042 220.373L129.276 220.351ZM141.737 221.527L141.961 221.599L141.993 221.499L141.94 221.408L141.737 221.527ZM150.436 197.311L150.35 197.092L150.242 197.134L150.21 197.245L150.436 197.311ZM145.499 214.239L145.273 214.173L145.257 214.228L145.268 214.284L145.499 214.239ZM155.843 198.252L156.077 198.227L156.064 198.108L155.961 198.048L155.843 198.252ZM156.085 200.417L156.319 200.393L156.319 200.391L156.085 200.417ZM156.085 200.418L155.851 200.443L155.851 200.445L156.085 200.418ZM151.611 219.176L151.606 219.411L151.718 219.413L151.79 219.328L151.611 219.176ZM166.423 206.245C166.423 222.995 152.844 236.573 136.094 236.573V237.044C153.104 237.044 166.893 223.255 166.893 206.245H166.423ZM136.094 175.917C152.844 175.917 166.423 189.495 166.423 206.245H166.893C166.893 189.236 153.104 175.447 136.094 175.447V175.917ZM105.766 206.245C105.766 189.495 119.344 175.917 136.094 175.917V175.447C119.085 175.447 105.296 189.236 105.296 206.245H105.766ZM136.094 236.573C119.344 236.573 105.766 222.995 105.766 206.245H105.296C105.296 223.255 119.085 237.044 136.094 237.044V236.573ZM140.752 196.61C139.742 196.807 139.007 196.852 138.327 196.772C137.646 196.692 137.006 196.484 136.182 196.153L136.007 196.589C136.843 196.926 137.529 197.152 138.272 197.239C139.017 197.327 139.803 197.274 140.841 197.072L140.752 196.61ZM144.858 192.212L140.626 196.679L140.967 197.003L145.199 192.536L144.858 192.212ZM133.036 191.228C133.263 189.414 134.137 188.169 135.304 187.414C136.477 186.655 137.963 186.383 139.417 186.554C142.337 186.897 145.018 188.999 144.794 192.358L145.263 192.39C145.509 188.696 142.548 186.448 139.472 186.087C137.929 185.905 136.329 186.191 135.048 187.019C133.762 187.851 132.813 189.221 132.57 191.169L133.036 191.228ZM136.293 196.245L133.001 191.072L132.605 191.325L135.896 196.497L136.293 196.245ZM130.205 206.789C130.925 204.594 130.934 203.11 130.686 200.347L130.218 200.389C130.463 203.126 130.449 204.536 129.758 206.642L130.205 206.789ZM124.742 214.404C127.226 211.883 128.436 210.231 130.191 206.823L129.773 206.608C128.039 209.975 126.857 211.588 124.407 214.074L124.742 214.404ZM123.73 192.184C122.157 193.334 120.739 195.358 119.666 197.709C118.59 200.065 117.848 202.773 117.64 205.315C117.432 207.851 117.754 210.255 118.844 211.973C119.947 213.713 121.814 214.715 124.595 214.473L124.554 214.004C121.927 214.233 120.239 213.295 119.241 211.721C118.229 210.126 117.904 207.842 118.108 205.353C118.312 202.87 119.039 200.215 120.093 197.905C121.15 195.591 122.525 193.647 124.008 192.564L123.73 192.184ZM130.668 200.276C129.727 198.054 128.931 196.393 127.93 195.104C126.922 193.807 125.713 192.896 123.96 192.157L123.778 192.591C125.465 193.302 126.606 194.166 127.559 195.393C128.518 196.628 129.294 198.238 130.235 200.459L130.668 200.276ZM133.616 216.093C134.462 215.656 135.127 215.452 135.828 215.454C136.534 215.455 137.302 215.665 138.355 216.102L138.536 215.667C137.464 215.223 136.628 214.985 135.829 214.983C135.025 214.982 134.283 215.219 133.4 215.676L133.616 216.093ZM129.447 220.513L133.679 216.046L133.338 215.723L129.106 220.19L129.447 220.513ZM141.513 221.455C140.49 224.638 137.653 226.224 134.99 226.082C133.66 226.012 132.377 225.51 131.386 224.564C130.395 223.619 129.682 222.22 129.511 220.33L129.042 220.373C129.223 222.362 129.979 223.872 131.061 224.904C132.141 225.934 133.533 226.476 134.965 226.552C137.827 226.704 140.868 224.998 141.961 221.599L141.513 221.455ZM138.242 216.003L141.534 221.645L141.94 221.408L138.649 215.766L138.242 216.003ZM150.21 197.245L145.273 214.173L145.724 214.304L150.661 197.377L150.21 197.245ZM155.961 198.048C154.78 197.367 153.86 196.933 152.991 196.77C152.111 196.604 151.303 196.719 150.35 197.092L150.522 197.53C151.413 197.181 152.13 197.086 152.904 197.232C153.69 197.38 154.552 197.778 155.726 198.455L155.961 198.048ZM156.319 200.391C156.239 199.694 156.156 198.974 156.077 198.227L155.609 198.277C155.689 199.026 155.772 199.748 155.851 200.444L156.319 200.391ZM156.319 200.393L156.319 200.393L155.851 200.442L155.851 200.443L156.319 200.393ZM151.79 219.328C154.729 215.87 156.077 212.95 156.578 209.972C157.077 207.006 156.731 203.999 156.319 200.391L155.851 200.445C156.266 204.067 156.6 207.006 156.114 209.894C155.63 212.771 154.328 215.615 151.432 219.024L151.79 219.328ZM145.268 214.284C145.684 216.413 146.317 217.7 147.361 218.45C148.395 219.192 149.785 219.369 151.606 219.411L151.617 218.941C149.793 218.899 148.54 218.717 147.635 218.068C146.739 217.425 146.138 216.285 145.729 214.194L145.268 214.284Z" fill="black"/>
<path d="M25.8333 180.361C25.8333 180.361 110.299 176.096 142.374 177.563C174.45 179.029 175.496 233.781 142.374 235.868C109.253 237.955 24.1852 234.469 24.1852 234.469" stroke="#818181" stroke-width="1.88083" stroke-dasharray="1.41 0.94"/>
<path d="M188.233 209.302L142.677 198.252L145.329 213.063L185.582 218.471L189.679 215.414L196.669 214.944C198.726 213.567 198.592 212.795 196.669 211.417H189.679L188.233 209.302Z" fill="black" stroke="black" stroke-width="0.470206"/>
</svg>
