<svg width="733" height="562" viewBox="0 0 733 562" fill="none" xmlns="http://www.w3.org/2000/svg">
<g filter="url(#filter0_df_321_6)">
<path d="M244.783 73.4406C210.283 44.9406 136.783 135.441 195.283 153.941C145.283 160.941 166.283 245.441 206.283 237.441C187.783 253.941 206.283 303.941 244.783 286.441C225.783 339.441 388.783 381.441 397.783 339.441C412.283 425.941 561.783 412.941 561.783 345.441C639.283 392.441 664.91 300.441 639.283 263.941C672.283 310.941 737.283 237.441 701.783 225.441C747.783 165.941 639.283 115.941 594.783 148.941C620.283 115.941 537.783 31.4407 500.783 80.4406C516.283 31.4407 410.283 -7.05934 397.783 48.9406C388.783 2.94066 244.783 5.94064 244.783 73.4406Z" fill="white"/>
</g>
<g filter="url(#filter1_df_321_6)">
<path d="M48.5214 411.084C36.0315 399.9 9.42258 435.416 30.6011 442.676C12.4998 445.423 20.1024 478.585 34.5834 475.445C27.8859 481.921 34.5834 501.543 48.5214 494.675C41.6429 515.475 100.653 531.957 103.911 515.475C109.161 549.421 163.284 544.319 163.284 517.829C191.341 536.274 200.619 500.169 191.341 485.845C203.288 504.29 226.819 475.445 213.968 470.736C230.621 447.386 191.341 427.763 175.231 440.714C184.462 427.763 152.395 382.24 139 401.47C144.611 382.24 108.437 379.493 103.911 401.47C100.653 383.417 48.5214 384.595 48.5214 411.084Z" fill="white"/>
</g>
<g filter="url(#filter2_df_321_6)">
<path d="M99.8238 252.37C78.8812 230.075 34.2641 300.87 69.7756 315.342C39.4239 320.818 52.1717 386.92 76.453 380.662C65.2229 393.57 76.453 432.683 99.8238 418.993C88.2902 460.454 187.237 493.309 192.7 460.454C201.502 528.12 292.254 517.951 292.254 465.147C339.299 501.914 354.856 429.945 339.299 401.392C359.331 438.159 398.788 380.662 377.238 371.275C405.162 324.73 339.299 285.616 312.286 311.431C327.765 285.616 277.685 219.514 255.225 257.845C264.634 219.514 200.288 189.397 192.7 233.204C187.237 197.22 99.8238 199.566 99.8238 252.37Z" fill="white"/>
</g>
<defs>
<filter id="filter0_df_321_6" x="146" y="0" width="586.921" height="422.22" filterUnits="userSpaceOnUse" color-interpolation-filters="sRGB">
<feFlood flood-opacity="0" result="BackgroundImageFix"/>
<feColorMatrix in="SourceAlpha" type="matrix" values="0 0 0 0 0 0 0 0 0 0 0 0 0 0 0 0 0 0 127 0" result="hardAlpha"/>
<feOffset dy="2"/>
<feGaussianBlur stdDeviation="10"/>
<feColorMatrix type="matrix" values="0 0 0 0 0 0 0 0 0 0 0 0 0 0 0 0 0 0 0.05 0"/>
<feBlend mode="normal" in2="BackgroundImageFix" result="effect1_dropShadow_321_6"/>
<feBlend mode="normal" in="SourceGraphic" in2="effect1_dropShadow_321_6" result="shape"/>
<feGaussianBlur stdDeviation="2" result="effect2_foregroundBlur_321_6"/>
</filter>
<filter id="filter1_df_321_6" x="0" y="368" width="238" height="193.327" filterUnits="userSpaceOnUse" color-interpolation-filters="sRGB">
<feFlood flood-opacity="0" result="BackgroundImageFix"/>
<feColorMatrix in="SourceAlpha" type="matrix" values="0 0 0 0 0 0 0 0 0 0 0 0 0 0 0 0 0 0 127 0" result="hardAlpha"/>
<feOffset dy="2"/>
<feGaussianBlur stdDeviation="10"/>
<feColorMatrix type="matrix" values="0 0 0 0 0 0 0 0 0 0 0 0 0 0 0 0 0 0 0.05 0"/>
<feBlend mode="normal" in2="BackgroundImageFix" result="effect1_dropShadow_321_6"/>
<feBlend mode="normal" in="SourceGraphic" in2="effect1_dropShadow_321_6" result="shape"/>
<feGaussianBlur stdDeviation="2" result="effect2_foregroundBlur_321_6"/>
</filter>
<filter id="filter2_df_321_6" x="32" y="191" width="372" height="339" filterUnits="userSpaceOnUse" color-interpolation-filters="sRGB">
<feFlood flood-opacity="0" result="BackgroundImageFix"/>
<feColorMatrix in="SourceAlpha" type="matrix" values="0 0 0 0 0 0 0 0 0 0 0 0 0 0 0 0 0 0 127 0" result="hardAlpha"/>
<feOffset dy="2"/>
<feGaussianBlur stdDeviation="10"/>
<feColorMatrix type="matrix" values="0 0 0 0 0 0 0 0 0 0 0 0 0 0 0 0 0 0 0.05 0"/>
<feBlend mode="normal" in2="BackgroundImageFix" result="effect1_dropShadow_321_6"/>
<feBlend mode="normal" in="SourceGraphic" in2="effect1_dropShadow_321_6" result="shape"/>
<feGaussianBlur stdDeviation="2" result="effect2_foregroundBlur_321_6"/>
</filter>
</defs>
</svg>
