<svg width="273" height="273" viewBox="0 0 273 273" fill="none" xmlns="http://www.w3.org/2000/svg">
<circle cx="136.314" cy="136.314" r="89.1041" transform="rotate(135.499 136.314 136.314)" stroke="black" stroke-width="14.5764"/>
<path d="M213.523 166.579L157.552 141.154L157.199 143.478L225.004 146.396L221.043 123.918L155.08 138.639L149.885 124.296L218.907 101.955L203.775 83.203L144.227 124.912L149.362 127.118L187.956 67.1053L166.573 59.7703L148.113 117.797L134.187 113.353L147.027 51.6201L124.242 52.5854L128.989 118.461L134.646 117.846L102.912 58.3845L84.6922 69.697L127.647 119.78L119.095 128.184L65.7931 82.6661L58.9554 104.219L114.735 132.468L114.443 127.811L51.9558 125.272L53.5918 147.397L121.365 134.854L118.572 150.124L55.7338 168.696L84.0108 205.184L125.964 141.211L123.83 157.153L104.378 214.505L124.934 221.335L139.821 153.634L170.7 215.914L190.576 205.281L144.473 154.007L154.051 142.287L205.694 187.458L213.523 166.579Z" stroke="black" stroke-width="0.470206"/>
</svg>
