<svg width="273" height="273" viewBox="0 0 273 273" fill="none" xmlns="http://www.w3.org/2000/svg">
<circle cx="136.318" cy="136.318" r="89.1041" transform="rotate(135.2 136.318 136.318)" stroke="black" stroke-width="14.5764"/>
<path d="M217.409 146.908L152.088 143.189L205.956 189.427L189.44 205.827L133.807 141.463L140.524 143.408M140.524 143.408L143.107 144.156L147.487 222.971L170.946 217.566L130.991 138.627L140.524 143.408ZM140.524 143.408L124.863 227.214L104.795 213.678L133.167 134.146L84.7045 206.46L69.306 188.618L144.286 139.671L51.572 173.096L50.8283 147.99L135.002 132.324L49.9038 127.04L59.2899 105.129L127.002 138.281L124.553 125.472L118.559 128.111L68.998 86.2106L85.0128 70.307L140.988 132.012L102.017 56.7343L125.808 51.6636L130.525 129.15L147.585 51.9058L168.514 56.966L143.97 135.015L187.924 68.5045L201.828 85.8424L142.001 127.694L216.893 104.016L220.311 125.14L160.915 138.399" stroke="black" stroke-width="0.470206"/>
</svg>
